<svg id="svg" version="1.1" xmlns="http://www.w3.org/2000/svg" xmlns:xlink="http://www.w3.org/1999/xlink" width="400" height="137.46856663872592" viewBox="0, 0, 400,137.46856663872592"><g id="svgg"><path id="path0" d="M124.321 71.230 C 124.282 71.267,123.725 71.345,123.083 71.403 C 122.442 71.461,121.654 71.545,121.333 71.590 C 120.191 71.748,119.412 71.861,119.083 71.914 C 118.900 71.944,118.434 72.014,118.049 72.069 C 117.456 72.153,115.876 72.481,114.791 72.744 C 114.630 72.783,114.424 72.861,114.333 72.917 C 114.229 72.981,114.167 74.623,114.167 77.258 L 114.167 81.496 115.125 81.056 C 115.652 80.814,116.233 80.560,116.417 80.492 C 117.269 80.174,118.873 79.639,119.170 79.573 C 119.352 79.533,119.669 79.462,119.875 79.415 C 120.731 79.221,121.566 79.076,122.917 78.886 C 124.730 78.632,129.724 78.751,131.000 79.079 C 131.730 79.267,131.913 79.308,132.083 79.321 C 132.175 79.329,132.512 79.499,132.833 79.701 C 133.154 79.903,133.464 80.071,133.523 80.075 C 133.581 80.080,133.806 80.271,134.023 80.500 C 135.114 81.654,135.157 81.757,135.285 83.522 L 135.365 84.628 129.724 84.709 C 120.631 84.839,116.796 85.838,113.833 88.847 C 110.123 92.615,110.101 100.289,113.788 104.340 C 119.134 110.215,131.023 109.201,135.083 102.524 C 135.201 102.330,135.274 102.982,135.333 104.750 L 135.417 107.250 141.125 107.294 L 146.833 107.338 146.833 96.579 C 146.833 83.297,146.656 81.445,145.088 78.320 C 144.278 76.705,142.530 74.500,142.060 74.500 C 141.993 74.500,141.783 74.359,141.594 74.187 C 140.693 73.369,137.503 72.040,135.786 71.767 C 135.475 71.718,135.115 71.640,134.986 71.594 C 134.251 71.336,124.560 71.005,124.321 71.230 M174.647 71.242 C 174.608 71.281,174.371 71.355,174.121 71.407 C 173.871 71.458,173.463 71.542,173.214 71.593 C 172.964 71.644,172.653 71.776,172.521 71.885 C 172.390 71.994,172.275 72.056,172.266 72.022 C 172.097 71.376,167.583 74.862,166.467 76.501 C 166.195 76.901,166.184 76.824,166.175 74.458 L 166.167 72.000 160.417 72.000 L 154.667 72.000 154.667 89.667 L 154.667 107.333 160.422 107.333 L 166.177 107.333 166.174 97.458 C 166.173 92.027,166.207 87.340,166.249 87.042 C 166.333 86.456,166.425 85.987,166.585 85.333 C 166.640 85.104,166.714 84.804,166.747 84.667 C 166.780 84.529,166.823 84.398,166.841 84.375 C 166.860 84.352,166.886 84.277,166.900 84.208 C 167.023 83.600,167.990 82.026,168.638 81.381 C 169.494 80.527,169.976 80.240,171.167 79.873 C 172.847 79.355,176.977 80.468,176.212 81.232 C 176.157 81.288,176.194 81.333,176.294 81.333 C 176.453 81.333,176.622 81.658,176.772 82.250 C 176.795 82.342,176.861 82.604,176.920 82.833 C 177.040 83.306,177.139 83.915,177.272 85.000 C 177.322 85.412,177.400 90.606,177.444 96.542 L 177.524 107.333 183.169 107.333 L 188.815 107.333 188.873 97.042 C 188.936 85.729,188.938 85.704,190.059 83.257 C 192.011 78.992,198.274 78.373,199.576 82.316 C 200.152 84.061,200.186 84.866,200.170 96.127 L 200.153 107.338 205.868 107.294 L 211.583 107.250 211.583 96.167 C 211.583 86.087,211.510 82.861,211.253 81.667 C 211.204 81.438,211.128 81.063,211.085 80.833 C 210.924 79.974,210.483 78.429,210.350 78.260 C 210.274 78.163,210.166 77.888,210.109 77.648 C 209.954 76.999,208.655 75.182,207.674 74.243 C 206.399 73.022,206.372 73.000,206.179 73.000 C 206.080 73.000,206.000 72.935,206.000 72.856 C 206.000 72.581,203.613 71.641,202.250 71.378 C 201.105 71.158,196.661 71.226,195.833 71.477 C 194.453 71.896,192.019 73.052,191.499 73.536 C 191.316 73.707,191.167 73.801,191.167 73.746 C 191.167 73.691,190.960 73.866,190.708 74.135 C 190.456 74.405,190.081 74.712,189.875 74.818 C 189.669 74.925,189.500 75.108,189.500 75.226 C 189.500 75.344,189.331 75.596,189.125 75.787 C 188.581 76.291,187.823 77.167,187.931 77.167 C 187.982 77.167,187.902 77.288,187.754 77.437 C 187.606 77.585,187.463 77.679,187.438 77.645 C 187.413 77.611,187.146 77.140,186.846 76.598 C 186.546 76.057,186.083 75.382,185.818 75.098 C 185.552 74.815,185.335 74.540,185.334 74.488 C 185.333 74.316,182.736 72.527,182.067 72.236 C 181.709 72.081,181.267 71.888,181.083 71.807 C 180.900 71.726,180.581 71.624,180.375 71.580 C 180.169 71.536,179.831 71.451,179.625 71.391 C 179.198 71.267,174.755 71.134,174.647 71.242 M352.667 71.347 C 352.346 71.427,351.862 71.535,351.591 71.588 C 351.320 71.641,350.870 71.781,350.591 71.901 C 348.977 72.591,348.333 72.901,348.333 72.988 C 348.333 73.041,348.122 73.179,347.865 73.293 C 347.607 73.407,347.235 73.650,347.038 73.833 C 346.842 74.017,346.645 74.167,346.601 74.167 C 346.557 74.167,345.878 74.810,345.094 75.597 L 343.667 77.027 343.667 74.514 L 343.667 72.000 338.000 72.000 L 332.333 72.000 332.333 89.667 L 332.333 107.333 337.992 107.333 L 343.650 107.333 343.706 97.208 C 343.777 84.326,344.044 83.154,347.468 80.704 C 348.712 79.814,352.309 79.357,353.074 79.992 C 353.216 80.110,353.333 80.159,353.333 80.100 C 353.333 79.898,354.248 80.565,354.950 81.278 C 356.352 82.702,356.491 84.162,356.496 97.544 L 356.500 107.338 362.208 107.294 L 367.917 107.250 367.917 96.333 C 367.917 86.641,367.842 83.248,367.597 81.833 C 367.557 81.604,367.474 81.117,367.413 80.750 C 367.351 80.383,367.265 80.026,367.222 79.956 C 367.179 79.885,367.107 79.625,367.062 79.376 C 367.017 79.128,366.878 78.698,366.753 78.421 C 366.628 78.143,366.479 77.750,366.420 77.547 C 366.161 76.644,364.753 74.901,362.903 73.194 C 362.351 72.685,360.737 71.965,359.250 71.564 C 359.158 71.540,358.896 71.467,358.667 71.403 C 358.032 71.225,353.329 71.181,352.667 71.347 M39.719 72.458 C 41.628 72.485,44.703 72.485,46.553 72.458 C 48.403 72.431,46.842 72.409,43.083 72.409 C 39.325 72.409,37.811 72.431,39.719 72.458 M220.667 84.917 L 220.667 91.000 226.333 91.000 L 232.000 91.000 232.000 84.917 L 232.000 78.833 226.333 78.833 L 220.667 78.833 220.667 84.917 M135.283 92.958 C 135.236 93.852,135.167 94.696,135.130 94.833 C 134.800 96.062,134.332 97.167,134.141 97.167 C 134.064 97.167,134.000 97.247,134.000 97.345 C 134.000 98.122,131.159 100.124,129.519 100.503 C 126.932 101.101,123.004 99.745,122.821 98.191 C 122.814 98.132,122.766 97.933,122.715 97.750 C 122.544 97.134,122.538 94.919,122.707 94.708 C 122.799 94.594,122.825 94.500,122.765 94.500 C 122.585 94.500,123.003 93.821,123.562 93.206 C 124.860 91.777,126.644 91.404,132.392 91.357 L 135.368 91.333 135.283 92.958 " stroke="none" fill="#040404" fill-rule="evenodd"></path><path id="path1" d="M32.356 29.316 C 32.107 29.473,32.880 30.722,34.996 33.583 C 35.606 34.408,36.273 35.325,36.477 35.619 C 36.681 35.914,37.051 36.252,37.299 36.371 C 37.595 36.512,37.768 36.740,37.802 37.035 C 37.833 37.303,37.984 37.525,38.177 37.587 C 38.355 37.643,38.500 37.787,38.500 37.908 C 38.500 38.348,39.539 38.583,41.458 38.578 C 42.490 38.576,43.333 38.587,43.333 38.603 C 43.333 38.620,42.846 39.672,42.251 40.942 C 40.980 43.654,41.017 43.375,41.796 44.401 C 42.137 44.851,42.578 45.488,42.774 45.817 C 43.256 46.622,44.533 47.389,45.708 47.580 C 46.098 47.643,46.333 47.773,46.333 47.924 C 46.333 48.058,46.402 48.167,46.486 48.167 C 46.710 48.167,47.333 49.234,47.333 49.616 C 47.333 50.403,47.970 50.667,49.872 50.667 C 52.268 50.667,52.250 50.655,51.565 51.793 C 50.362 53.790,50.847 53.908,54.444 52.496 C 58.481 50.911,58.583 51.053,55.460 53.908 C 52.710 56.422,52.570 56.701,53.774 57.273 C 55.385 58.037,60.453 55.738,73.691 48.235 C 75.862 47.005,79.709 44.910,84.292 42.464 C 87.427 40.790,85.584 42.483,81.210 45.295 C 75.650 48.869,61.264 58.457,60.292 59.237 C 58.941 60.319,59.042 60.866,60.475 60.230 C 62.676 59.251,66.034 57.543,71.333 54.704 C 76.778 51.787,78.741 50.852,78.958 51.070 C 78.997 51.108,78.888 51.215,78.716 51.307 C 78.544 51.399,77.293 52.268,75.936 53.239 C 74.579 54.209,71.845 56.093,69.859 57.424 C 59.889 64.109,57.996 65.648,58.006 67.060 C 58.013 68.023,58.215 68.480,58.856 68.983 C 59.183 69.240,59.390 69.680,59.666 70.705 C 60.282 72.999,60.441 73.167,61.989 73.167 C 63.996 73.167,64.684 72.928,69.731 70.480 C 76.806 67.048,77.044 67.002,73.833 69.682 C 70.656 72.334,70.813 72.301,79.873 68.441 C 86.727 65.520,86.667 65.543,86.667 65.901 C 86.667 66.144,82.460 69.382,78.423 72.246 C 72.408 76.514,71.668 77.703,76.232 75.764 C 79.865 74.222,80.749 73.876,81.367 73.759 L 81.917 73.654 81.083 74.423 C 80.625 74.846,78.900 76.214,77.250 77.464 C 73.554 80.264,72.641 81.145,72.348 82.195 C 72.096 83.097,72.187 83.333,72.782 83.333 C 73.018 83.333,73.488 83.416,73.825 83.517 C 74.396 83.688,74.635 83.624,77.178 82.622 C 81.423 80.949,81.613 80.970,79.409 82.861 C 78.483 83.657,77.670 84.549,77.082 85.417 C 76.586 86.150,75.678 87.350,75.065 88.083 C 72.992 90.564,72.988 90.591,74.208 93.014 C 74.959 94.504,78.203 99.922,78.492 100.167 C 78.546 100.212,79.601 101.806,80.837 103.707 L 83.083 107.165 93.875 107.166 C 99.810 107.166,104.667 107.126,104.667 107.077 C 104.667 107.027,102.848 104.143,100.625 100.666 C 96.525 94.255,95.067 91.987,90.204 84.453 C 88.247 81.422,87.550 80.215,87.704 80.123 C 87.821 80.053,88.617 79.562,89.473 79.031 C 110.163 66.199,105.132 34.282,81.665 29.500 C 79.908 29.142,32.908 28.966,32.356 29.316 M253.647 60.625 C 253.475 61.070,251.329 66.781,248.780 73.583 C 248.093 75.417,246.108 80.779,244.369 85.500 C 240.526 95.931,236.569 106.645,236.413 107.042 C 236.304 107.316,236.659 107.333,242.464 107.333 L 248.630 107.333 249.260 105.542 C 249.606 104.556,249.939 103.675,250.000 103.583 C 250.061 103.492,250.470 102.385,250.908 101.124 L 251.705 98.831 261.134 98.874 L 270.563 98.917 272.010 103.083 L 273.457 107.250 279.645 107.294 C 283.049 107.318,285.833 107.304,285.833 107.263 C 285.833 107.222,284.704 104.127,283.324 100.386 C 281.943 96.644,280.360 92.346,279.805 90.833 C 279.251 89.321,278.693 87.858,278.567 87.583 C 278.441 87.308,277.564 84.983,276.618 82.417 C 275.671 79.850,273.439 73.795,271.657 68.960 L 268.417 60.170 261.121 60.169 L 253.825 60.167 253.647 60.625 M289.333 83.748 L 289.333 107.333 295.501 107.333 L 301.668 107.333 301.626 83.792 L 301.583 60.250 295.458 60.206 L 289.333 60.163 289.333 83.748 M127.632 71.124 C 128.208 71.156,129.108 71.156,129.632 71.123 C 130.155 71.090,129.683 71.063,128.583 71.064 C 127.483 71.064,127.055 71.091,127.632 71.124 M176.121 71.120 C 176.417 71.157,176.942 71.158,177.288 71.122 C 177.634 71.086,177.392 71.055,176.750 71.055 C 176.108 71.054,175.825 71.083,176.121 71.120 M198.542 71.121 C 198.885 71.157,199.448 71.157,199.792 71.121 C 200.135 71.085,199.854 71.056,199.167 71.056 C 198.479 71.056,198.198 71.085,198.542 71.121 M354.875 71.121 C 355.219 71.157,355.781 71.157,356.125 71.121 C 356.469 71.085,356.188 71.056,355.500 71.056 C 354.813 71.056,354.531 71.085,354.875 71.121 M262.687 76.167 C 263.495 78.504,264.871 82.476,265.745 84.992 C 266.619 87.509,267.333 89.627,267.333 89.700 C 267.333 89.774,264.521 89.833,261.083 89.833 C 257.646 89.833,254.833 89.807,254.833 89.775 C 254.833 89.728,258.068 80.268,260.468 73.297 C 260.807 72.314,261.113 71.602,261.150 71.714 C 261.187 71.825,261.878 73.829,262.687 76.167 M157.448 71.958 C 159.023 71.985,161.648 71.985,163.281 71.958 C 164.914 71.931,163.625 71.908,160.417 71.908 C 157.208 71.908,155.872 71.931,157.448 71.958 M332.208 89.625 L 332.248 107.417 332.292 89.711 L 332.335 72.004 338.042 71.958 L 343.750 71.912 337.958 71.873 L 332.167 71.833 332.208 89.625 M193.000 72.500 C 192.679 72.676,192.492 72.819,192.583 72.819 C 192.675 72.819,193.012 72.676,193.333 72.500 C 193.654 72.324,193.842 72.181,193.750 72.181 C 193.658 72.181,193.321 72.324,193.000 72.500 M43.119 72.497 L 36.322 72.583 36.847 73.417 C 37.137 73.875,37.439 74.275,37.520 74.306 C 37.601 74.336,37.667 74.427,37.667 74.508 C 37.667 74.679,38.230 75.552,44.813 85.583 C 47.520 89.708,49.831 93.182,49.950 93.303 C 50.068 93.423,50.473 94.050,50.850 94.695 C 51.227 95.341,51.677 96.011,51.851 96.184 C 52.025 96.358,52.160 96.542,52.152 96.593 C 52.143 96.644,53.689 99.044,55.586 101.927 L 59.035 107.167 66.184 107.167 C 70.767 107.167,73.333 107.108,73.333 107.002 C 73.333 106.803,65.654 95.440,65.466 95.361 C 65.393 95.331,65.333 95.233,65.333 95.145 C 65.333 94.909,63.960 93.000,63.791 93.000 C 63.712 93.000,63.690 92.930,63.744 92.844 C 63.797 92.758,63.720 92.620,63.572 92.537 C 63.424 92.454,63.315 92.334,63.329 92.270 C 63.356 92.142,53.366 77.270,52.931 76.792 C 52.786 76.631,52.709 76.500,52.761 76.500 C 52.854 76.500,52.198 75.498,51.998 75.333 C 51.942 75.287,51.471 74.594,50.952 73.792 C 50.432 72.990,49.987 72.351,49.962 72.372 C 49.937 72.394,46.858 72.450,43.119 72.497 M114.000 77.250 C 114.000 79.679,114.056 81.663,114.125 81.659 C 114.314 81.647,116.103 80.684,115.953 80.675 C 115.881 80.670,115.447 80.857,114.989 81.089 L 114.156 81.511 114.203 77.172 C 114.229 74.786,114.194 72.833,114.125 72.833 C 114.056 72.833,114.000 74.821,114.000 77.250 M183.333 72.894 C 183.333 72.940,183.558 73.138,183.833 73.333 C 184.108 73.529,184.333 73.652,184.333 73.606 C 184.333 73.560,184.108 73.362,183.833 73.167 C 183.558 72.971,183.333 72.848,183.333 72.894 M207.667 74.250 C 207.978 74.571,208.307 74.833,208.399 74.833 C 208.490 74.833,208.311 74.571,208.000 74.250 C 207.689 73.929,207.360 73.667,207.268 73.667 C 207.176 73.667,207.356 73.929,207.667 74.250 M364.036 74.259 C 364.377 74.612,364.696 74.860,364.744 74.811 C 364.793 74.762,364.514 74.474,364.125 74.171 L 363.417 73.619 364.036 74.259 M190.067 74.524 C 189.752 74.880,189.752 74.881,190.125 74.685 C 190.331 74.577,190.500 74.416,190.500 74.327 C 190.500 74.091,190.420 74.127,190.067 74.524 M344.833 75.583 C 344.428 75.996,344.158 76.333,344.232 76.333 C 344.306 76.333,344.709 75.996,345.128 75.583 C 345.546 75.171,345.817 74.833,345.729 74.833 C 345.641 74.833,345.238 75.171,344.833 75.583 M209.000 75.750 C 209.284 76.162,209.554 76.500,209.599 76.500 C 209.645 76.500,209.450 76.162,209.167 75.750 C 208.883 75.337,208.613 75.000,208.567 75.000 C 208.521 75.000,208.716 75.337,209.000 75.750 M365.333 75.750 C 365.617 76.162,365.887 76.500,365.933 76.500 C 365.979 76.500,365.784 76.162,365.500 75.750 C 365.216 75.337,364.946 75.000,364.901 75.000 C 364.855 75.000,365.050 75.337,365.333 75.750 M189.084 75.499 C 188.918 75.683,188.859 75.833,188.954 75.833 C 189.163 75.833,189.579 75.357,189.467 75.245 C 189.423 75.201,189.251 75.315,189.084 75.499 M125.377 78.786 C 125.631 78.825,126.006 78.824,126.211 78.784 C 126.416 78.744,126.208 78.713,125.750 78.714 C 125.292 78.716,125.124 78.748,125.377 78.786 M127.125 78.784 C 127.331 78.824,127.669 78.824,127.875 78.784 C 128.081 78.745,127.912 78.712,127.500 78.712 C 127.087 78.712,126.919 78.745,127.125 78.784 M220.540 84.875 L 220.579 91.083 220.625 84.958 L 220.671 78.833 226.333 78.833 L 231.996 78.833 232.042 84.958 L 232.088 91.083 232.127 84.875 L 232.167 78.667 226.333 78.667 L 220.500 78.667 220.540 84.875 M311.500 84.833 L 311.500 91.000 317.250 91.000 L 323.000 91.000 323.000 84.833 L 323.000 78.667 317.250 78.667 L 311.500 78.667 311.500 84.833 M131.706 79.258 C 131.774 79.328,132.149 79.528,132.540 79.702 C 132.930 79.877,133.175 79.944,133.083 79.852 C 132.992 79.760,132.617 79.560,132.250 79.408 C 131.883 79.256,131.639 79.189,131.706 79.258 M172.458 79.784 C 172.665 79.824,173.002 79.824,173.208 79.784 C 173.415 79.745,173.246 79.712,172.833 79.712 C 172.421 79.712,172.252 79.745,172.458 79.784 M195.211 79.786 C 195.464 79.825,195.839 79.824,196.044 79.784 C 196.249 79.744,196.042 79.713,195.583 79.714 C 195.125 79.716,194.957 79.748,195.211 79.786 M350.711 79.786 C 350.964 79.825,351.339 79.824,351.544 79.784 C 351.749 79.744,351.542 79.713,351.083 79.714 C 350.625 79.716,350.457 79.748,350.711 79.786 M167.845 82.272 C 167.655 82.514,167.502 82.795,167.505 82.897 C 167.508 83.000,167.593 82.933,167.695 82.750 C 167.797 82.567,167.994 82.285,168.132 82.125 C 168.271 81.965,168.341 81.833,168.288 81.833 C 168.235 81.833,168.035 82.031,167.845 82.272 M211.542 84.583 C 211.544 84.950,211.578 85.080,211.618 84.873 C 211.658 84.666,211.656 84.366,211.615 84.206 C 211.573 84.047,211.540 84.217,211.542 84.583 M367.879 84.833 C 367.879 85.246,367.911 85.415,367.951 85.208 C 367.991 85.002,367.991 84.665,367.951 84.458 C 367.911 84.252,367.879 84.421,367.879 84.833 M200.209 86.917 C 200.211 87.283,200.245 87.414,200.285 87.206 C 200.324 86.999,200.323 86.699,200.281 86.540 C 200.239 86.380,200.207 86.550,200.209 86.917 M356.385 87.917 C 356.386 88.467,356.417 88.672,356.454 88.372 C 356.491 88.072,356.490 87.622,356.452 87.372 C 356.414 87.122,356.384 87.367,356.385 87.917 M177.412 97.333 C 177.412 102.879,177.433 105.148,177.458 102.375 C 177.484 99.602,177.484 95.065,177.458 92.292 C 177.433 89.519,177.412 91.787,177.412 97.333 M130.792 91.458 C 131.640 91.488,133.027 91.488,133.875 91.458 C 134.723 91.427,134.029 91.403,132.333 91.403 C 130.637 91.403,129.944 91.427,130.792 91.458 " stroke="none" fill="#fcbc24" fill-rule="evenodd"></path></g></svg>