<?xml version="1.0" encoding="UTF-8" standalone="no" ?>
<!DOCTYPE svg PUBLIC "-//W3C//DTD SVG 1.1//EN" "http://www.w3.org/Graphics/SVG/1.1/DTD/svg11.dtd">
<svg xmlns="http://www.w3.org/2000/svg" xmlns:xlink="http://www.w3.org/1999/xlink" version="1.1" width="250" height="250" viewBox="0 0 250 250" xml:space="preserve">
<desc>Created with Fabric.js 3.6.3</desc>
<defs>
</defs>
<g transform="matrix(1 0 0 1 125.29 125.11)" id="path0"  >
<path style="stroke: rgb(248,188,36); stroke-width: 1; stroke-dasharray: none; stroke-linecap: butt; stroke-dashoffset: 0; stroke-linejoin: miter; stroke-miterlimit: 4; fill: rgb(248,188,36); fill-rule: evenodd; opacity: 1;"  transform=" translate(-200.19, -204.04)" d="M 108.167 88.545 C 99.867 88.62 93.004 88.754 92.916 88.842 C 92.685 89.073 95.905 93.948 99.839 99.323 C 101.705 101.873 103.953 105.061 104.836 106.408 C 106.395 108.787 106.698 109.068 108.391 109.705 C 109.11 109.975 109.212 110.138 109.36 111.252 C 109.502 112.329 109.64 112.565 110.379 113.001 C 110.849 113.279 111.332 113.763 111.452 114.078 C 112.105 115.797 117.45 116.858 122.015 116.174 C 126.858 115.45 126.625 115.293 125.138 118.284 C 122.417 123.753 119.634 129.745 119.595 130.217 C 119.535 130.948 121.86 134.573 122.698 135.055 C 123.084 135.277 123.507 135.827 123.669 136.318 C 124.204 137.942 125.863 140.05 126.604 140.05 C 126.817 140.05 127.551 140.452 128.235 140.943 C 129.793 142.063 130.21 142.224 132.418 142.565 C 134.596 142.9 135.075 143.135 135.075 143.867 C 135.075 144.203 135.367 144.65 135.792 144.964 C 136.655 145.602 137.811 147.823 137.811 148.844 C 137.811 151.276 139.544 151.984 145.577 152.015 C 152.513 152.051 152.438 151.999 150.421 155.359 C 148.917 157.865 148.117 159.769 148.386 160.204 C 148.779 160.84 152.309 159.823 158.932 157.167 C 168.596 153.29 171.006 153.262 167.102 157.072 C 166.11 158.04 163.222 160.753 160.683 163.101 C 154.337 168.971 153.694 170.064 155.928 171.183 C 156.38 171.41 156.948 171.774 157.189 171.992 C 160.091 174.619 174.166 167.938 220.149 142.106 C 235.292 133.6 251.567 124.987 251.997 125.253 C 253.619 126.256 252.534 127.043 222.512 146.649 C 188.691 168.737 173.383 179.321 173.383 180.62 C 173.383 181.689 177.847 179.98 186.443 175.62 C 193.13 172.228 196.953 170.204 218.829 158.482 C 228.046 153.543 231.597 152.1 231.59 153.296 C 231.586 153.975 221.007 161.461 203.612 173.093 C 181.981 187.558 171.044 195.746 169.771 198.429 C 168.7 200.685 169.767 205.094 171.606 206.013 C 173.007 206.714 173.617 208.052 174.776 212.964 C 176.067 218.434 176.58 218.79 182.92 218.599 C 188.393 218.435 188.338 218.456 205.194 210.155 C 221.387 202.18 221.891 201.977 221.891 203.427 C 221.891 204.374 221.731 204.547 218.284 207.353 C 213.289 211.418 210.614 213.779 210.897 213.873 C 211.599 214.107 218.388 211.397 233.209 204.968 C 253.505 196.164 254.25 195.884 254.643 196.907 C 255.047 197.961 253.718 199.051 237.065 211.323 C 218.729 224.835 214.925 227.917 214.925 229.265 C 214.925 230.053 216.901 229.358 225.622 225.5 C 232.271 222.558 236.846 220.792 239.102 220.295 C 242.034 219.649 237.362 223.958 225.871 232.498 C 215.575 240.149 213.346 242.232 212.266 245.206 C 211.142 248.303 211.439 248.981 213.93 249.012 C 214.546 249.02 215.498 249.188 216.045 249.385 C 217.909 250.057 219.039 249.742 227.239 246.268 C 237.948 241.73 239.658 241.87 234.142 246.835 C 229.759 250.779 227.355 253.357 226.177 255.374 C 224.934 257.501 222.45 260.828 219.786 263.93 C 215.573 268.838 214.719 270.274 214.997 271.987 C 215.588 275.627 223.299 288.564 240.97 315.56 L 243.648 319.652 L 275.563 319.652 L 307.478 319.652 L 306.617 318.305 C 306.143 317.565 299.013 306.455 290.772 293.616 C 276.046 270.675 261.863 248.531 258.146 242.674 L 256.259 239.702 L 258.913 238.238 C 314.894 207.36 315.037 125.637 259.161 96.422 C 253.453 93.438 246.43 90.988 238.603 89.252 L 234.95 88.442 L 179.104 88.425 C 148.389 88.417 116.468 88.471 108.167 88.545 M 138.514 268.271 L 172.264 319.626 L 193.482 319.639 L 214.7 319.652 L 209.527 311.993 C 206.681 307.781 191.039 284.665 174.765 260.625 L 145.177 216.915 L 124.971 216.915 L 104.764 216.915 L 138.514 268.271" stroke-linecap="round" />
</g>
</svg>